<svg width="643" height="480" viewBox="0 0 643 480" fill="none" xmlns="http://www.w3.org/2000/svg">
<g clip-path="url(#clip0_1_7)">
<mask id="mask0_1_7" style="mask-type:luminance" maskUnits="userSpaceOnUse" x="-304" y="-442" width="1958" height="1134">
<path d="M-303.133 -441.127H1653.46V691.698H-303.133V-441.127Z" fill="white"/>
</mask>
<g mask="url(#mask0_1_7)">
<path d="M42.0308 -35.7875C42.0308 -35.7875 55.5874 -59.6514 91.3755 -76.4651C134.214 -30.3644 145.871 1.36497 145.871 1.36497L126.893 16.2806C126.893 16.2806 68.0596 27.9424 44.1995 44.7561C43.0175 33.1741 34.1711 22.0547 33.8043 11.3519C32.9073 -14.7808 42.0308 -35.7875 42.0308 -35.7875Z" fill="black"/>
<path d="M181.805 -93.2777C181.805 -93.2777 284.29 -95.7181 377.828 -73.7524C470.552 -51.7847 511.221 75.1309 511.221 75.1309C511.221 75.1309 368.88 23.8762 256.636 18.1819C185.871 -60.7348 181.805 -93.2777 181.805 -93.2777Z" fill="black"/>
<path d="M524.609 -30.4821C524.609 -30.4821 646.647 7.87467 693.875 52.8927C645.054 101.165 640.808 101.707 631.787 95.1973C622.765 88.6895 524.609 -30.4821 524.609 -30.4821Z" fill="black"/>
<path d="M110.956 155.673C110.956 155.673 144.305 145.096 255.738 151.605C447.693 261.436 428.985 305.369 428.985 305.369C428.985 305.369 335.991 268.217 202.462 254.521C107.297 211.401 110.956 155.673 110.956 155.673Z" fill="black"/>
<path d="M507.547 213.84C507.547 213.84 599.866 240.689 663.307 289.096C623.453 324.486 588.478 322.453 583.598 316.35C578.717 310.249 507.547 213.84 507.547 213.84Z" fill="black"/>
<path d="M74.6305 339.812C76.1275 341.383 49.1439 305.099 88.7293 273.099C62.1583 189.03 29.6233 186.861 29.6233 186.861C29.6233 186.861 -25.1433 235.133 74.6305 339.812Z" fill="black"/>
<path d="M184.461 351.473C184.461 351.473 138.641 347.948 120.204 370.998C101.768 394.05 138.641 429.576 185.275 441.778C176.871 425.235 183.377 413.576 212.388 418.185C241.397 422.795 298.605 433.915 298.605 433.915L264.443 352.286L184.461 351.473Z" fill="black"/>
<path d="M693.946 52.8908C693.946 52.8908 602.847 35.5348 490.061 -57.7553C430.412 -108.739 370.222 -164.603 414.687 -196.604C450.475 -218.841 507.955 -185.755 510.123 -181.959C509.581 -194.434 382.694 -242.706 324.132 -221.012C265.568 -199.315 268.822 -113.077 404.384 -2.43121C539.947 108.213 632.129 152.689 703.707 170.045C712.382 112.553 693.946 52.8908 693.946 52.8908Z" fill="#5790FC"/>
<path d="M231.359 -209.619C231.359 -209.619 91.4595 -168.941 250.88 8.41736C410.302 185.776 631.539 291.539 667.327 286.659C658.058 301.229 644.206 320.651 631.04 338.561C609.128 368.367 569.454 378.547 535.895 362.993C431.582 314.646 212.464 192.527 91.4595 -24.1255C44.2835 -120.127 114.233 -164.059 231.359 -209.619Z" fill="#15BEC4"/>
<path d="M47.5204 -44.7355C47.5204 -44.7355 -8.87274 43.1293 154.887 201.505C237.795 278.715 362.155 380.214 472.409 426.514C487.859 433.003 486.693 455.302 470.747 460.452C441.491 469.903 407.802 478.016 389.138 477.035C315.933 453.711 52.9422 311.066 4.13967 127.74C0.886564 81.0973 18.2384 -3.51566 47.5204 -44.7355Z" fill="#F74012"/>
<path d="M76.836 -68.5523C76.836 -68.5523 92.6092 -88.5801 181.733 -93.2814C199.292 -61.3946 223.961 -23.9749 258.928 17.3467C174.64 3.82471 115.8 17.3467 115.8 17.3467C115.8 17.3467 82.4014 -33.5571 76.836 -68.5523Z" fill="#26EAEA"/>
<path d="M29.672 186.86C29.672 186.86 58.8682 164.356 111.01 155.673C134.923 182.384 185.813 234.083 216.03 256.352C138.898 253.172 111.414 264.789 88.778 273.098C61.3698 245.218 38.925 210.026 29.672 186.86Z" fill="#FF7F66"/>
<path d="M320.984 -86.05C320.984 -86.05 402.306 -79.1096 524.654 -30.4827C583.389 8.59781 693.921 52.8901 693.921 52.8901C693.921 52.8901 709.82 104.041 705.05 138.241C610.425 104.837 502.283 72.226 502.283 72.226C502.283 72.226 351.997 -31.1706 320.984 -86.05Z" fill="#8DB3FC"/>
</g>
</g>
<defs>
<clipPath id="clip0_1_7">
<rect width="1407" height="709" fill="white" transform="translate(0.953125 -229.215)"/>
</clipPath>
</defs>
</svg>
