<svg width="174" height="88" viewBox="0 0 174 88" fill="none" xmlns="http://www.w3.org/2000/svg">
<g clip-path="url(#clip0_1_205)">
<mask id="mask0_1_205" style="mask-type:luminance" maskUnits="userSpaceOnUse" x="-37" y="-26" width="241" height="139">
<path d="M-36.2344 -25.5749H203.048V112.932H-36.2344V-25.5749Z" fill="white"/>
</mask>
<g mask="url(#mask0_1_205)">
<path d="M142.964 40.7015C142.057 40.7015 141.483 39.7286 141.922 38.9351L143.903 35.3492C144.338 34.5625 145.472 34.5657 145.9 35.3563C146.51 36.483 147.122 37.6321 147.886 39.1204C148.255 39.8368 147.741 40.7015 146.936 40.7015H142.964ZM146.592 29.5666C145.185 27.0562 144.11 27.2953 142.751 29.8323C138.243 38.3579 132.383 49.4823 132.383 49.4823H135.751C136.189 49.4823 136.591 49.2422 136.799 48.857L138.67 45.3869C139.644 43.58 141.531 42.4535 143.584 42.4535H145.988C148.186 42.4535 150.184 43.6875 151.151 45.6611C151.614 46.6062 152.121 47.6457 152.681 48.8027C152.877 49.2059 153.295 49.4823 153.744 49.4823H157.174C154.441 43.8404 153.163 41.289 146.592 29.5666Z" fill="black"/>
<path d="M143.798 16.5178C138.957 19.0063 134.888 27.1262 131.59 33.2637C131.347 33.7147 130.839 33.8863 130.382 33.8893C129.926 33.8863 129.417 33.7147 129.175 33.2637C125.876 27.1262 121.808 19.0063 116.966 16.5178C116.028 16.0357 115.805 16.169 116.282 17.1985C121.351 28.1403 125.803 36.3677 130.367 45.8603V45.934C130.368 45.9298 130.373 45.9198 130.373 45.912C130.376 45.9054 130.379 45.8991 130.382 45.8925C130.385 45.8991 130.389 45.9054 130.392 45.912C130.392 45.9198 130.396 45.9298 130.398 45.934V45.8603C134.961 36.3677 139.413 28.1403 144.482 17.1985C144.959 16.169 144.736 16.0357 143.798 16.5178Z" fill="black"/>
<path d="M113.596 40.7016C112.69 40.7016 112.116 39.7287 112.555 38.9352L114.536 35.3493C114.971 34.5626 116.105 34.5658 116.533 35.3564C117.143 36.4831 117.755 37.6323 118.519 39.1205C118.887 39.837 118.374 40.7016 117.569 40.7016H113.596ZM128.422 49.4756C125.692 43.8385 124.413 41.2845 117.844 29.5667C116.437 27.0563 114.742 27.2955 113.384 29.8324C108.876 38.358 103.016 49.4824 103.016 49.4824H106.384C106.821 49.4824 107.224 49.2423 107.432 48.8571L109.302 45.387C110.276 43.5801 112.164 42.4536 114.217 42.4536H116.621C118.819 42.4536 120.817 43.6876 121.784 45.6612C122.247 46.6064 122.753 47.6458 123.314 48.8028C123.51 49.206 123.928 49.4824 124.376 49.4824C124.376 49.4824 128.424 49.4785 128.422 49.4756Z" fill="black"/>
<path d="M5.99015 23.9845C5.99015 23.9845 7.64807 21.0667 12.0248 19.011C17.2638 24.6476 18.6894 28.527 18.6894 28.527L16.3684 30.3507C16.3684 30.3507 9.17337 31.7765 6.25538 33.8323C6.11082 32.4162 5.02895 31.0567 4.98409 29.7481C4.87439 26.5529 5.99015 23.9845 5.99015 23.9845Z" fill="black"/>
<path d="M23.0859 16.9553C23.0859 16.9553 35.6193 16.6569 47.0587 19.3426C58.3984 22.0285 63.3722 37.546 63.3722 37.546C63.3722 37.546 45.9644 31.2793 32.2374 30.5831C23.5832 20.9342 23.0859 16.9553 23.0859 16.9553Z" fill="black"/>
<path d="M64.9999 24.6331C64.9999 24.6331 79.9246 29.3228 85.7004 34.827C79.7298 40.7291 79.2106 40.7954 78.1073 39.9994C77.0039 39.2038 64.9999 24.6331 64.9999 24.6331Z" fill="black"/>
<path d="M14.4163 47.3938C14.4163 47.3938 18.4946 46.1005 32.1224 46.8965C55.5977 60.3251 53.3099 65.6967 53.3099 65.6967C53.3099 65.6967 41.937 61.1541 25.607 59.4797C13.9687 54.2075 14.4163 47.3938 14.4163 47.3938Z" fill="black"/>
<path d="M62.9218 54.5057C62.9218 54.5057 74.212 57.7884 81.9707 63.707C77.0966 68.034 72.8193 67.7854 72.2226 67.0392C71.6256 66.2933 62.9218 54.5057 62.9218 54.5057Z" fill="black"/>
<path d="M9.97117 69.9077C10.1542 70.0998 6.85426 65.6635 11.6954 61.7509C8.44587 51.4722 4.46697 51.2069 4.46697 51.2069C4.46697 51.2069 -2.23076 57.109 9.97117 69.9077Z" fill="black"/>
<path d="M23.404 71.3334C23.404 71.3334 17.8003 70.9024 15.5456 73.7207C13.2909 76.5393 17.8003 80.8829 23.5034 82.3748C22.4757 80.3522 23.2713 78.9266 26.8192 79.4902C30.3669 80.0538 37.3633 81.4133 37.3633 81.4133L33.1854 71.4329L23.404 71.3334Z" fill="black"/>
<path d="M85.7157 34.8268C85.7157 34.8268 74.5747 32.7047 60.7814 21.2985C53.4867 15.0649 46.1257 8.23454 51.5635 4.32195C55.9403 1.60312 62.9698 5.64833 63.235 6.11248C63.1687 4.58717 47.651 -1.31487 40.4891 1.33765C33.327 3.99041 33.7248 14.5344 50.3035 28.0627C66.8824 41.5908 78.1558 47.0287 86.9095 49.1508C87.9704 42.1215 85.7157 34.8268 85.7157 34.8268Z" fill="#5790FC"/>
<path d="M29.1399 2.73058C29.1399 2.73058 12.0308 7.70409 31.5272 29.3891C51.0239 51.0742 78.0803 64.0055 82.457 63.4087C81.3234 65.1902 79.6294 67.5648 78.0193 69.7547C75.3395 73.3989 70.4876 74.6436 66.3834 72.7419C53.6264 66.8306 26.8292 51.8996 12.0308 25.4102C6.26137 13.6724 14.8159 8.30109 29.1399 2.73058Z" fill="#15BEC4"/>
<path d="M6.66536 22.8903C6.66536 22.8903 -0.231282 33.6332 19.7958 52.9973C29.9352 62.4375 45.1438 74.8474 58.6275 80.5083C60.517 81.3018 60.3744 84.0282 58.4242 84.6579C54.8463 85.8133 50.7263 86.8053 48.4438 86.6853C39.4912 83.8336 7.32843 66.393 1.36008 43.9783C0.962241 38.2755 3.08431 27.9301 6.66536 22.8903Z" fill="#F74012"/>
<path d="M10.2343 19.9784C10.2343 19.9784 12.1633 17.5297 23.0627 16.9548C25.2102 20.8535 28.2271 25.4287 32.5034 30.481C22.1954 28.8277 14.9994 30.481 14.9994 30.481C14.9994 30.481 10.9149 24.2571 10.2343 19.9784Z" fill="#26EAEA"/>
<path d="M4.48431 51.2067C4.48431 51.2067 8.05489 48.4552 14.4316 47.3936C17.3561 50.6594 23.5797 56.9805 27.2751 59.7033C17.8422 59.3144 14.4811 60.7349 11.7127 61.7507C8.36083 58.342 5.61592 54.0391 4.48431 51.2067Z" fill="#FF7F66"/>
<path d="M40.1015 17.8391C40.1015 17.8391 50.0468 18.6877 65.0095 24.6331C72.1926 29.4113 85.7101 34.8268 85.7101 34.8268C85.7101 34.8268 87.6545 41.0809 87.0711 45.2623C75.4989 41.1781 62.2736 37.1909 62.2736 37.1909C62.2736 37.1909 43.8942 24.549 40.1015 17.8391Z" fill="#8DB3FC"/>
</g>
<path d="M104.527 63.7424L104.204 62.5101C104.171 62.3756 104.123 62.1844 104.058 61.937C103.988 61.6893 103.929 61.4312 103.865 61.1647C103.8 60.901 103.752 60.6803 103.719 60.5109C103.687 60.6803 103.644 60.8929 103.585 61.146C103.531 61.3961 103.472 61.6464 103.412 61.8939C103.353 62.1388 103.3 62.3458 103.256 62.5101L102.928 63.7424H104.527ZM105.323 66.8179L104.952 65.4079H102.509L102.126 66.8179H99.8984L102.347 59.2703H105.059L107.54 66.8179H105.323Z" fill="black"/>
<path d="M110.792 60.8392H110.393V62.5558H110.77C111.082 62.5558 111.341 62.4885 111.54 62.3513C111.733 62.2141 111.836 61.9693 111.836 61.6141C111.836 61.3718 111.755 61.1809 111.588 61.0437C111.427 60.9064 111.158 60.8392 110.792 60.8392ZM110.824 59.3026C111.502 59.3026 112.073 59.3863 112.525 59.5503C112.977 59.7171 113.316 59.9647 113.547 60.2929C113.773 60.6239 113.886 61.033 113.886 61.5227C113.886 61.8267 113.838 62.1065 113.73 62.3567C113.628 62.607 113.483 62.8303 113.294 63.0268C113.1 63.223 112.874 63.3954 112.611 63.5434L114.801 66.818H112.498L110.905 64.0841H110.393V66.818H108.359V59.3026H110.824Z" fill="black"/>
<path d="M133.301 73.5385C133.059 73.5385 132.849 73.587 132.661 73.6892C132.473 73.7915 132.311 73.9368 132.177 74.1277C132.042 74.3215 131.94 74.5555 131.87 74.83C131.8 75.1072 131.762 75.4192 131.762 75.769C131.762 76.2427 131.827 76.6381 131.945 76.9611C132.064 77.2839 132.247 77.5262 132.494 77.6902C132.736 77.857 133.043 77.9379 133.415 77.9379C133.753 77.9379 134.076 77.8921 134.383 77.8007C134.695 77.7063 135.007 77.5961 135.325 77.4643V79.1809C134.991 79.3289 134.652 79.4366 134.302 79.5012C133.953 79.5656 133.587 79.598 133.194 79.598C132.376 79.598 131.709 79.4366 131.192 79.1136C130.67 78.7882 130.288 78.3387 130.046 77.7629C129.798 77.1871 129.68 76.5199 129.68 75.7583C129.68 75.1906 129.755 74.6686 129.917 74.195C130.078 73.7216 130.309 73.3125 130.616 72.9654C130.928 72.6156 131.31 72.3464 131.762 72.1582C132.214 71.9671 132.736 71.873 133.323 71.873C133.683 71.873 134.071 71.9132 134.469 71.9966C134.873 72.0829 135.266 72.2172 135.653 72.4003L135.029 74.0012C134.754 73.8695 134.48 73.7591 134.195 73.6704C133.915 73.5816 133.619 73.5385 133.301 73.5385Z" fill="black"/>
<path d="M126.659 63.7425L126.336 62.5102C126.304 62.3757 126.256 62.1846 126.191 61.9371C126.121 61.6894 126.062 61.4313 125.997 61.1648C125.933 60.9011 125.884 60.6805 125.852 60.511C125.82 60.6805 125.777 60.893 125.718 61.1461C125.664 61.3962 125.605 61.6465 125.545 61.894C125.486 62.139 125.432 62.3459 125.389 62.5102L125.061 63.7425H126.659ZM127.456 66.818L127.084 65.408H124.641L124.259 66.818H122.031L124.48 59.2705H127.192L129.673 66.818H127.456Z" fill="black"/>
<path d="M134.757 62.9729C134.757 62.5156 134.698 62.1387 134.574 61.8401C134.456 61.5388 134.273 61.3155 134.025 61.1648C133.783 61.0169 133.476 60.9415 133.105 60.9415H132.519V65.1525H132.971C133.584 65.1525 134.036 64.9721 134.327 64.6143C134.612 64.2564 134.757 63.7101 134.757 62.9729ZM136.867 62.9003C136.867 63.7747 136.7 64.5012 136.377 65.0799C136.049 65.6584 135.591 66.0942 134.999 66.3848C134.413 66.6727 133.713 66.818 132.917 66.818H130.484V59.3029H133.089C133.896 59.3029 134.58 59.4399 135.145 59.7171C135.704 59.9969 136.135 60.4033 136.425 60.9359C136.716 61.4715 136.867 62.1253 136.867 62.9003Z" fill="black"/>
<path d="M142.024 63.7425L141.701 62.5102C141.664 62.3757 141.615 62.1846 141.55 61.9371C141.486 61.6894 141.421 61.4313 141.357 61.1648C141.292 60.9011 141.244 60.6805 141.212 60.511C141.179 60.6805 141.136 60.893 141.082 61.1461C141.023 61.3962 140.964 61.6465 140.905 61.894C140.845 62.139 140.792 62.3459 140.749 62.5102L140.426 63.7425H142.024ZM142.815 66.818L142.444 65.408H140.006L139.624 66.818H137.391L139.844 59.2705H142.551L145.038 66.818H142.815Z" fill="black"/>
<path d="M155.092 59.3028L152.632 66.8179H150.238L147.789 59.3028H150.071L151.093 63.11C151.131 63.2553 151.174 63.4384 151.222 63.6644C151.276 63.8877 151.319 64.111 151.362 64.3345C151.405 64.5578 151.432 64.738 151.443 64.8806C151.459 64.738 151.481 64.5605 151.518 64.3399C151.556 64.122 151.599 63.9011 151.648 63.6805C151.69 63.4572 151.734 63.277 151.777 63.1317L152.821 59.3028H155.092Z" fill="black"/>
<path d="M155.891 59.3026H157.93V66.8177H155.891V59.3026Z" fill="black"/>
<path d="M164.466 64.5362C164.466 64.9425 164.364 65.3299 164.16 65.6958C163.955 66.059 163.637 66.355 163.202 66.5812C162.766 66.8072 162.206 66.92 161.523 66.92C161.178 66.92 160.877 66.904 160.618 66.8745C160.36 66.8447 160.123 66.7938 159.897 66.7238C159.677 66.6538 159.445 66.5595 159.203 66.4466V64.6383C159.612 64.8428 160.021 65.0018 160.436 65.1093C160.855 65.217 161.227 65.2707 161.566 65.2707C161.765 65.2707 161.931 65.2465 162.061 65.198C162.19 65.1497 162.281 65.0851 162.346 65.0018C162.405 64.9155 162.438 64.8187 162.438 64.711C162.438 64.5793 162.394 64.4689 162.303 64.3775C162.211 64.2887 162.066 64.1917 161.867 64.0923C161.668 63.9925 161.404 63.8716 161.081 63.7237C160.802 63.5918 160.554 63.4599 160.328 63.3227C160.102 63.1854 159.913 63.0294 159.752 62.8517C159.591 62.6742 159.472 62.4697 159.386 62.233C159.3 61.996 159.257 61.7162 159.257 61.3934C159.257 60.9117 159.375 60.5056 159.612 60.1772C159.849 59.8515 160.183 59.6041 160.608 59.44C161.038 59.2757 161.528 59.195 162.088 59.195C162.577 59.195 163.019 59.2489 163.411 59.3591C163.804 59.4695 164.154 59.5934 164.466 59.7333L163.847 61.302C163.525 61.154 163.207 61.0382 162.895 60.9495C162.583 60.8634 162.292 60.8176 162.028 60.8176C161.851 60.8176 161.711 60.8391 161.598 60.8822C161.485 60.9251 161.404 60.9817 161.35 61.0543C161.297 61.127 161.27 61.2103 161.27 61.302C161.27 61.4175 161.318 61.5226 161.41 61.614C161.496 61.7081 161.652 61.8078 161.867 61.9153C162.077 62.0231 162.373 62.163 162.739 62.3351C163.11 62.4992 163.422 62.6769 163.675 62.868C163.934 63.0562 164.133 63.2849 164.267 63.5513C164.402 63.8178 164.466 64.1432 164.466 64.5362Z" fill="black"/>
<path d="M169.454 63.7426L169.131 62.5104C169.093 62.3758 169.045 62.1847 168.98 61.9372C168.915 61.6896 168.851 61.4314 168.787 61.165C168.722 60.9012 168.673 60.6806 168.641 60.5112C168.609 60.6806 168.566 60.8932 168.512 61.1462C168.453 61.3963 168.394 61.6467 168.334 61.8941C168.275 62.1391 168.221 62.3461 168.178 62.5104L167.856 63.7426H169.454ZM170.245 66.8181L169.874 65.4081H167.436L167.054 66.8181H164.82L167.274 59.2706H169.981L172.467 66.8181H170.245Z" fill="black"/>
<path d="M104.527 76.3752L104.204 75.1429C104.171 75.0084 104.123 74.8172 104.058 74.5698C103.988 74.3221 103.929 74.064 103.865 73.7975C103.8 73.5338 103.752 73.3132 103.719 73.1437C103.687 73.3132 103.644 73.5257 103.585 73.7788C103.531 74.0289 103.472 74.2792 103.412 74.5267C103.353 74.7717 103.3 74.9786 103.256 75.1429L102.928 76.3752H104.527ZM105.323 79.4507L104.952 78.0407H102.509L102.126 79.4507H99.8984L102.347 71.9032H105.059L107.54 79.4507H105.323Z" fill="black"/>
<path d="M111.379 75.0515H114.624V79.1011C114.237 79.2357 113.79 79.3432 113.29 79.4266C112.789 79.5129 112.267 79.5531 111.718 79.5531C110.997 79.5531 110.362 79.4132 109.819 79.1333C109.27 78.8508 108.845 78.423 108.543 77.8498C108.237 77.2767 108.086 76.5503 108.086 75.6732C108.086 74.8848 108.237 74.2039 108.538 73.6281C108.839 73.055 109.281 72.6111 109.873 72.2962C110.459 71.9841 111.18 71.8281 112.03 71.8281C112.504 71.8281 112.945 71.871 113.37 71.96C113.79 72.0487 114.156 72.1618 114.468 72.2988L113.828 73.8946C113.553 73.76 113.274 73.6606 112.983 73.5933C112.692 73.526 112.38 73.4936 112.041 73.4936C111.595 73.4936 111.234 73.5933 110.96 73.7949C110.685 73.9994 110.492 74.2685 110.368 74.6049C110.244 74.944 110.179 75.3153 110.179 75.7241C110.179 76.1897 110.249 76.5825 110.378 76.9028C110.513 77.2229 110.707 77.4678 110.96 77.6346C111.218 77.7989 111.525 77.8823 111.891 77.8823C112.009 77.8823 112.154 77.8742 112.326 77.8579C112.499 77.8391 112.633 77.8203 112.719 77.796V76.6176H111.379V75.0515Z" fill="black"/>
<path d="M120.617 79.4507H116.156V71.9356H120.617V73.5635H118.19V74.7473H120.44V76.3752H118.19V77.7959H120.617V79.4507Z" fill="black"/>
<path d="M129.071 79.4507H126.408L123.663 74.1554H123.615C123.636 74.3168 123.647 74.5106 123.663 74.7366C123.679 74.9625 123.69 75.1939 123.701 75.4281C123.711 75.6622 123.717 75.8747 123.717 76.0632V79.4507H121.914V71.9356H124.567L127.301 77.1582H127.333C127.322 76.9942 127.311 76.803 127.301 76.5851C127.29 76.3672 127.285 76.1466 127.274 75.9233C127.263 75.7024 127.263 75.5035 127.263 75.3338V71.9356H129.071V79.4507Z" fill="black"/>
<path d="M139.461 74.7206L140.758 71.9357H142.959L140.484 76.5153V79.4508H138.439V76.5772L135.969 71.9357H138.181L139.461 74.7206Z" fill="black"/>
<path d="M115.289 66.8307V59.2704H117.358V62.4757L119.428 59.2704H121.754L119.428 62.6515L121.754 66.8307H119.428L117.953 63.9499L117.358 64.288V66.8307H115.289Z" fill="black"/>
</g>
<defs>
<clipPath id="clip0_1_205">
<rect width="172.07" height="86.6869" fill="white" transform="translate(0.96875 0.334961)"/>
</clipPath>
</defs>
</svg>
